<svg width="16" height="16" viewBox="0 0 16 16" fill="none" xmlns="http://www.w3.org/2000/svg">
<path fill-rule="evenodd" clip-rule="evenodd" d="M6 8C6.5 8.96552 7 9.68967 8 9.68967V9.72104C7.22316 9.74106 6.5 9.5 6.5 9.5V10.5C4 11 2 12.2386 2 13.5517V15H8H14V13.5517C14 12.2386 12 11 9.5 10.5V8.84192C9.67781 8.59711 9.83891 8.31107 10 8C10.3966 7.23422 10.4786 7.03241 10.4956 6.5H10.5C10.679 6.5 10.7298 6.5 10.7442 6.47708C10.75 6.46799 10.75 6.45526 10.75 6.4375C10.75 6.375 10.75 6.25 11 6L11 5.5C11 5 10.5 5 10.5 5C10.5 3 10 2 8 2C6 2 5.5 3 5.5 5C5.5 5 5 5 5 5.5L5.00002 6C5.25003 6.25 5.25003 6.375 5.25002 6.4375C5.25002 6.45526 5.25002 6.46799 5.25575 6.47708C5.2702 6.5 5.32104 6.5 5.50002 6.5H5.50443C5.52139 7.03241 5.60344 7.23422 6 8Z" fill="#292E33"/>
</svg>
